<svg width="32" height="32" viewBox="0 0 32 32" fill="none" xmlns="http://www.w3.org/2000/svg">
<path opacity="0.5" fill-rule="evenodd" clip-rule="evenodd" d="M16.7159 10.5519V18.8628V20.4635C16.5807 20.4593 16.3986 20.4586 16.1248 20.4586H15.2843V24.6099C15.2843 25.6139 14.4584 26.4002 13.4738 26.4002H12.9685C11.1468 26.4002 9.64223 24.9488 9.64223 23.1245V20.3923C9.59414 20.3849 9.547 20.3768 9.50059 20.3678C7.58747 19.9948 6.07868 18.5257 5.69378 16.6295C5.59987 16.1669 5.59996 15.6316 5.60011 14.808L5.60012 14.7073L5.60011 14.6067C5.59996 13.7831 5.59987 13.2478 5.69378 12.7852C6.07868 10.889 7.58747 9.41986 9.50059 9.04695C9.96803 8.95584 10.5095 8.95592 11.354 8.95605L11.4528 8.95606H16.1248C16.3986 8.95606 16.5807 8.95543 16.7159 8.95117V10.5519Z" fill="#D6DBFF"/>
<path d="M18.3159 19.2367V10.1768V8.32738L20.2691 7.13116C21.0473 6.65448 21.6784 6.26797 22.198 6.01114C22.7203 5.75299 23.2496 5.56219 23.8039 5.60585C24.6089 5.66927 25.3518 6.07038 25.8391 6.71343C26.1768 7.1589 26.2932 7.70898 26.3468 8.28197C26.4002 8.85165 26.4001 9.58231 26.4001 10.4802V18.9333C26.4001 19.8312 26.4002 20.5619 26.3468 21.1316C26.2932 21.7045 26.1768 22.2546 25.8391 22.7001C25.3518 23.3431 24.6089 23.7442 23.8039 23.8077C23.2496 23.8513 22.7203 23.6605 22.198 23.4024C21.6784 23.1455 21.0473 22.759 20.269 22.2823L18.3159 21.0861V19.2367Z" fill="#D6DBFF"/>
</svg>
