<svg width="32" height="32" viewBox="0 0 32 32" fill="none" xmlns="http://www.w3.org/2000/svg">
<path opacity="0.5" d="M23.875 25.878C23.3307 26.1635 22.7369 26.2855 22.0452 26.3437C21.4843 26.3909 20.8122 26.3988 20.0001 26.4001L12.0001 26.4004C11.188 26.3991 10.5159 26.3909 9.95496 26.3437C9.26328 26.2855 8.6695 26.1635 8.12519 25.878C7.25035 25.4191 6.54336 24.6892 6.10167 23.7969C5.82831 23.2446 5.71105 22.642 5.65495 21.9352C5.60011 21.2442 5.60012 20.3877 5.60012 19.3096L5.60012 17.5464L5.60011 17.4432C5.59993 16.5049 5.5998 15.8935 5.74462 15.3131C5.87272 14.7996 6.08389 14.3111 6.36994 13.868C6.69385 13.3663 7.1381 12.9549 7.81456 12.3284L7.81456 12.3284L7.89029 12.2583L11.3706 9.03382L11.3706 9.03381C12.0763 8.37991 12.6403 7.85745 13.1308 7.46956C13.6344 7.07134 14.1102 6.77375 14.6532 6.60503C15.5314 6.33218 16.4688 6.33218 17.347 6.60503C17.89 6.77375 18.3658 7.07134 18.8694 7.46956C19.3599 7.85744 19.9239 8.37991 20.6296 9.03381L20.6296 9.03383L24.1099 12.2583L24.1856 12.3284C24.8621 12.9549 25.3063 13.3663 25.6303 13.868C25.9163 14.3111 26.1275 14.7996 26.2556 15.3131C26.4004 15.8935 26.4003 16.5048 26.4001 17.4432V17.4432L26.4001 17.5464V19.3096V19.3097C26.4001 20.3877 26.4001 21.2443 26.3452 21.9352C26.2891 22.642 26.1719 23.2446 25.8985 23.7969C25.4568 24.6892 24.7498 25.4191 23.875 25.878Z" fill="#D6DBFF"/>
<path d="M12.0001 21.6016V24.801V26.4013C12.1637 26.4016 12.333 26.4013 12.5083 26.4013H12.5441H19.457H19.4919C19.6671 26.4013 19.8364 26.4013 20.0001 26.4011V24.801V21.6016L20.0001 21.4916C20.0004 20.8553 20.0007 20.3827 19.891 19.9734C19.5951 18.8691 18.7326 18.0066 17.6283 17.7107C17.219 17.601 16.7464 17.6013 16.1101 17.6016L16.0001 17.6016L15.89 17.6016C15.2537 17.6013 14.7812 17.601 14.3719 17.7107C13.2676 18.0066 12.405 18.8691 12.1091 19.9734C11.9994 20.3827 11.9997 20.8553 12 21.4916L12.0001 21.6016Z" fill="#D6DBFF"/>
</svg>
