<svg width="36" height="36" viewBox="0 0 36 36" fill="none" xmlns="http://www.w3.org/2000/svg">
<path opacity="0.5" d="M17.9998 29.7008C14.6476 29.7008 12.9716 29.7008 11.6294 29.2123C9.37953 28.3934 7.60719 26.6211 6.78829 24.3711C6.2998 23.029 6.2998 21.3529 6.2998 18.0008C6.2998 14.6486 6.2998 12.9725 6.78829 11.6304C7.60719 9.38051 9.37953 7.60817 11.6294 6.78927C12.9716 6.30078 14.6476 6.30078 17.9998 6.30078C21.352 6.30078 23.0281 6.30078 24.3702 6.78927C26.6201 7.60817 28.3924 9.38051 29.2113 11.6304C29.6998 12.9725 29.6998 14.6486 29.6998 18.0008C29.6998 21.3529 29.6998 23.029 29.2113 24.3711C28.3924 26.6211 26.6201 28.3934 24.3702 29.2123C23.0281 29.7008 21.352 29.7008 17.9998 29.7008Z" fill="#D6DBFF"/>
<path fill-rule="evenodd" clip-rule="evenodd" d="M18 9C14.0803 9 10.7475 11.5054 9.5123 15.0001C9.18033 15.9393 9 16.9493 9 18C9 22.9706 13.0294 27 18 27C22.9706 27 27 22.9706 27 18C27 16.9493 26.8197 15.9393 26.4877 15.0001C25.2525 11.5054 21.9197 9 18 9ZM11.2148 14.5385H14.2881C14.562 13.4646 14.9305 12.5226 15.2972 11.7471C15.4836 11.353 15.6701 11.0005 15.8447 10.6939C13.8267 11.2883 12.1566 12.696 11.2148 14.5385ZM17.6718 10.3916C17.6116 10.4766 17.5381 10.5836 17.4547 10.7114C17.2094 11.0869 16.8795 11.6399 16.5489 12.339C16.2525 12.966 15.9574 13.7063 15.7218 14.5385H20.2782C20.0426 13.7063 19.7475 12.966 19.4511 12.339C19.1205 11.6399 18.7906 11.0869 18.5453 10.7114C18.4619 10.5836 18.3884 10.4766 18.3282 10.3916C18.2194 10.3869 18.11 10.3846 18 10.3846C17.89 10.3846 17.7806 10.3869 17.6718 10.3916ZM20.1553 10.6939C20.3299 11.0005 20.5164 11.353 20.7028 11.7471C21.0695 12.5226 21.438 13.4646 21.7119 14.5385H24.7852C23.8434 12.696 22.1733 11.2883 20.1553 10.6939ZM25.3289 15.9231H21.9944C22.0951 16.5806 22.1538 17.2749 22.1538 18C22.1538 18.7245 22.0952 19.4189 21.9946 20.0769H25.3287C25.5155 19.4167 25.6154 18.72 25.6154 18C25.6154 17.2792 25.5154 16.5827 25.3289 15.9231ZM24.785 21.4615H21.713C21.4391 22.5395 21.0703 23.4862 20.7033 24.2659C20.5215 24.6524 20.3394 24.9992 20.1686 25.3022C22.1809 24.7055 23.8454 23.2996 24.785 21.4615ZM18.3472 25.6076C18.4034 25.527 18.4698 25.429 18.5442 25.3144C18.7896 24.936 19.1197 24.3793 19.4505 23.6764C19.7479 23.0445 20.0438 22.2987 20.2797 21.4615H15.7218C15.9574 22.2937 16.2525 23.034 16.5489 23.661C16.8795 24.3601 17.2094 24.9131 17.4547 25.2886C17.5381 25.4164 17.6116 25.5234 17.6718 25.6084C17.7806 25.6131 17.89 25.6154 18 25.6154C18.1164 25.6154 18.2321 25.6128 18.3472 25.6076ZM15.8447 25.3061C15.6701 24.9995 15.4836 24.647 15.2972 24.2529C14.9305 23.4774 14.562 22.5354 14.2881 21.4615H11.215C12.1566 23.3036 13.8264 24.7116 15.8447 25.3061ZM10.6713 20.0769H14.0056C13.9049 19.4194 13.8462 18.7251 13.8462 18C13.8462 17.2749 13.9049 16.5806 14.0056 15.9231H10.6711C10.4846 16.5827 10.3846 17.2792 10.3846 18C10.3846 18.72 10.4845 19.4167 10.6713 20.0769ZM15.4082 15.9231C15.2968 16.5775 15.2308 17.2724 15.2308 18C15.2308 18.7276 15.2968 19.4225 15.4082 20.0769H20.5921C20.7033 19.4218 20.7692 18.7269 20.7692 18C20.7692 17.2724 20.7032 16.5775 20.5918 15.9231H15.4082Z" fill="#D6DBFF"/>
</svg>
