<svg width="34" height="34" viewBox="0 0 34 34" fill="none" xmlns="http://www.w3.org/2000/svg">
<path fill-rule="evenodd" clip-rule="evenodd" d="M17.0001 5.94923L16.8373 5.94923C14.6208 5.94906 13.3321 5.94896 12.2502 6.23887C9.60421 6.94785 7.48073 8.88161 6.51324 11.4066C6.41509 11.6628 6.36602 11.7909 6.39314 11.915C6.41556 12.0176 6.48729 12.1219 6.57508 12.1795C6.68129 12.2493 6.82952 12.2493 7.12597 12.2493H26.8743C27.1708 12.2493 27.319 12.2493 27.4252 12.1795C27.513 12.1219 27.5847 12.0176 27.6071 11.915C27.6343 11.7909 27.5852 11.6628 27.4871 11.4066C26.5196 8.88161 24.3961 6.94785 21.7501 6.23887C20.6682 5.94896 19.3795 5.94906 17.163 5.94923L17.0001 5.94923ZM11.9001 11.0492C12.3696 11.0492 12.7501 10.6687 12.7501 10.1992C12.7501 9.72979 12.3696 9.34923 11.9001 9.34923C11.4307 9.34923 11.0501 9.72979 11.0501 10.1992C11.0501 10.6687 11.4307 11.0492 11.9001 11.0492ZM14.4501 11.0492C14.9196 11.0492 15.3001 10.6687 15.3001 10.1992C15.3001 9.72979 14.9196 9.34923 14.4501 9.34923C13.9807 9.34923 13.6001 9.72979 13.6001 10.1992C13.6001 10.6687 13.9807 11.0492 14.4501 11.0492ZM17.0001 11.0492C17.4696 11.0492 17.8501 10.6687 17.8501 10.1992C17.8501 9.72979 17.4696 9.34923 17.0001 9.34923C16.5307 9.34923 16.1501 9.72979 16.1501 10.1992C16.1501 10.6687 16.5307 11.0492 17.0001 11.0492Z" fill="#D6DBFF"/>
<g opacity="0.5">
<path d="M28.0502 16.9984V16.9166C28.0502 16.3185 28.0502 15.7879 28.0452 15.3117C28.0406 14.8785 28.0383 14.6618 27.945 14.4819C27.8652 14.3281 27.7286 14.193 27.574 14.1149C27.3931 14.0234 27.1689 14.0234 26.7204 14.0234H14.9602C14.4842 14.0234 14.2461 14.0234 14.0643 14.1161C13.9044 14.1976 13.7743 14.3276 13.6929 14.4875C13.6002 14.6694 13.6002 14.9074 13.6002 15.3834V26.7274C13.6002 27.1621 13.6002 27.3795 13.6905 27.5594C13.7667 27.7112 13.9033 27.8506 14.0535 27.9299C14.2315 28.0239 14.4376 28.0281 14.8497 28.0366C15.4299 28.0485 16.094 28.0485 16.8721 28.0484L17.0002 28.0484L17.1631 28.0484C19.3795 28.0486 20.6682 28.0487 21.7502 27.7588C24.6835 26.9728 26.9746 24.6817 27.7606 21.7484C28.0505 20.6665 28.0504 19.3777 28.0502 17.1613L28.0502 16.9984Z" fill="#D6DBFF"/>
<path d="M5.9502 17.1613C5.95004 19.3778 5.94994 20.6665 6.23984 21.7484C6.83591 23.973 8.29767 25.8282 10.2487 26.9377C10.6506 27.1662 10.8516 27.2805 11.1059 27.2638C11.3436 27.2482 11.6289 27.0822 11.76 26.8833C11.9002 26.6705 11.9002 26.3978 11.9002 25.8523V15.3834C11.9002 14.9074 11.9002 14.6694 11.8076 14.4875C11.7261 14.3276 11.596 14.1976 11.4361 14.1161C11.2543 14.0234 11.0163 14.0234 10.5402 14.0234H7.28006C6.83155 14.0234 6.60729 14.0234 6.42644 14.1149C6.2718 14.193 6.13526 14.3281 6.05545 14.4819C5.96212 14.6618 5.95982 14.8785 5.95523 15.3117C5.95019 15.7879 5.9502 16.3184 5.95021 16.9165L5.95021 16.9984L5.9502 17.1613Z" fill="#D6DBFF"/>
</g>
</svg>
