<svg width="50" height="50" viewBox="0 0 50 50" fill="none" xmlns="http://www.w3.org/2000/svg">
<g filter="url(#filter0_d_7527_101056)">
<path d="M41.279 23.6055C41.279 34.7683 35.6976 40.3497 24.5348 40.3497C13.372 40.3497 7.79065 34.7683 7.79065 23.6055C7.79065 12.4427 13.372 6.86133 24.5348 6.86133C35.6976 6.86133 41.279 12.4427 41.279 23.6055Z" fill="url(#paint0_linear_7527_101056)"/>
</g>
<path opacity="0.5" d="M25 12C19.4772 12 15 16.1041 15 21.1667V28.6667L16.8182 23.2793V21.1667C16.8182 17.0245 20.4813 13.6667 25 13.6667C29.5187 13.6667 33.1818 17.0245 33.1818 21.1667V23.25L35 28.6667V21.1667C35 16.1041 30.5228 12 25 12Z" fill="#FF9900"/>
<path d="M15 26.1654C15 24.3244 16.6281 22.832 18.6364 22.832C20.6447 22.832 22.2727 24.3244 22.2727 26.1654V28.6654C22.2727 30.5063 20.6447 31.9987 18.6364 31.9987C16.6281 31.9987 15 30.5063 15 28.6654V26.1654Z" fill="#FF9900"/>
<path d="M27.7273 26.1654C27.7273 24.3244 29.3553 22.832 31.3636 22.832C33.3719 22.832 35 24.3244 35 26.1654V28.6654C35 30.5063 33.3719 31.9987 31.3636 31.9987C29.3553 31.9987 27.7273 30.5063 27.7273 28.6654V26.1654Z" fill="#FF9900"/>
<defs>
<filter id="filter0_d_7527_101056" x="-91.2094" y="-33.1387" width="231.488" height="231.488" filterUnits="userSpaceOnUse" color-interpolation-filters="sRGB">
<feFlood flood-opacity="0" result="BackgroundImageFix"/>
<feColorMatrix in="SourceAlpha" type="matrix" values="0 0 0 0 0 0 0 0 0 0 0 0 0 0 0 0 0 0 127 0" result="hardAlpha"/>
<feOffset dy="59"/>
<feGaussianBlur stdDeviation="49.5"/>
<feColorMatrix type="matrix" values="0 0 0 0 0.945098 0 0 0 0 0.568627 0 0 0 0 0.705882 0 0 0 0.2 0"/>
<feBlend mode="normal" in2="BackgroundImageFix" result="effect1_dropShadow_7527_101056"/>
<feBlend mode="normal" in="SourceGraphic" in2="effect1_dropShadow_7527_101056" result="shape"/>
</filter>
<linearGradient id="paint0_linear_7527_101056" x1="7.83568" y1="6.86132" x2="41.2382" y2="40.4006" gradientUnits="userSpaceOnUse">
<stop stop-color="#FBFD9D"/>
<stop offset="1" stop-color="#E89E5B"/>
</linearGradient>
</defs>
</svg>
