<svg width="32" height="32" viewBox="0 0 32 32" fill="none" xmlns="http://www.w3.org/2000/svg">
<rect width="32" height="32" rx="4" fill="#39539D"/>
<path d="M14.6826 24.9997V17.2547H12.0762V14.2362H14.6826V12.0102C14.4823 10.0116 15.9402 8.22909 17.9388 8.02886C18.1468 8.00802 18.3563 8.00515 18.5648 8.02029C19.3427 8.01755 20.1202 8.05728 20.8938 8.13929V10.8389L19.2955 10.8397C18.0422 10.8397 17.7996 11.4352 17.7996 12.3091V14.2363H20.7886L20.3993 17.2547H17.7997V24.9997L14.6826 24.9997Z" fill="white"/>
<path d="M22.999 5H4.99799C4.44574 5 3.99799 5.44769 3.99799 6V24.001C3.99799 24.5533 4.44574 25.001 4.99799 25.001H22.999C23.5513 25.001 23.999 24.5533 23.999 24.001V6C23.999 5.44769 23.5513 5 22.999 5ZM20.8937 10.8392L19.2955 10.84C18.0422 10.84 17.7996 11.4355 17.7996 12.3094V14.2365H20.7886L20.3993 17.2549H17.7997V24.9999H14.6825V17.2549H12.0762V14.2365H14.6825V12.0105C14.4823 10.0119 15.9402 8.22937 17.9388 8.02918C18.1468 8.00831 18.3563 8.00544 18.5648 8.02057C19.3426 8.01782 20.1202 8.05756 20.8937 8.13959V10.8392Z" fill="#39539D"/>
</svg>
