<svg width="32" height="32" viewBox="0 0 32 32" fill="none" xmlns="http://www.w3.org/2000/svg">
<rect width="32" height="32" rx="4" fill="#DA1E8F"/>
<rect x="7" y="7" width="18" height="18" rx="4" fill="#DA1E8F"/>
<path d="M20.005 11.095C19.827 11.095 19.653 11.1478 19.505 11.2467C19.357 11.3456 19.2416 11.4861 19.1735 11.6506C19.1054 11.815 19.0876 11.996 19.1223 12.1706C19.157 12.3452 19.2427 12.5055 19.3686 12.6314C19.4945 12.7573 19.6548 12.843 19.8294 12.8777C20.004 12.9124 20.185 12.8946 20.3494 12.8265C20.5139 12.7584 20.6544 12.643 20.7533 12.495C20.8522 12.347 20.905 12.173 20.905 11.995C20.905 11.7563 20.8102 11.5274 20.6414 11.3586C20.4726 11.1898 20.2437 11.095 20.005 11.095ZM23.455 12.91C23.4404 12.2877 23.3239 11.6721 23.11 11.0875C22.9193 10.5873 22.6225 10.1345 22.24 9.76C21.8686 9.37557 21.4147 9.08063 20.9125 8.8975C20.3295 8.67712 19.7131 8.55791 19.09 8.545C18.295 8.5 18.04 8.5 16 8.5C13.96 8.5 13.705 8.5 12.91 8.545C12.2869 8.55791 11.6705 8.67712 11.0875 8.8975C10.5863 9.08249 10.1327 9.37717 9.76 9.76C9.37557 10.1314 9.08063 10.5853 8.8975 11.0875C8.67712 11.6705 8.55791 12.2869 8.545 12.91C8.5 13.705 8.5 13.96 8.5 16C8.5 18.04 8.5 18.295 8.545 19.09C8.55791 19.7131 8.67712 20.3295 8.8975 20.9125C9.08063 21.4147 9.37557 21.8686 9.76 22.24C10.1327 22.6228 10.5863 22.9175 11.0875 23.1025C11.6705 23.3229 12.2869 23.4421 12.91 23.455C13.705 23.5 13.96 23.5 16 23.5C18.04 23.5 18.295 23.5 19.09 23.455C19.7131 23.4421 20.3295 23.3229 20.9125 23.1025C21.4147 22.9194 21.8686 22.6244 22.24 22.24C22.6242 21.8669 22.9213 21.4136 23.11 20.9125C23.3239 20.3279 23.4404 19.7123 23.455 19.09C23.455 18.295 23.5 18.04 23.5 16C23.5 13.96 23.5 13.705 23.455 12.91ZM22.105 19C22.0995 19.4761 22.0133 19.9478 21.85 20.395C21.7302 20.7214 21.5379 21.0163 21.2875 21.2575C21.0442 21.5054 20.7499 21.6973 20.425 21.82C19.9778 21.9833 19.5061 22.0695 19.03 22.075C18.28 22.1125 18.0025 22.12 16.03 22.12C14.0575 22.12 13.78 22.12 13.03 22.075C12.5357 22.0843 12.0434 22.0081 11.575 21.85C11.2643 21.7211 10.9835 21.5296 10.75 21.2875C10.5011 21.0466 10.3111 20.7514 10.195 20.425C10.0119 19.9714 9.91033 19.489 9.895 19C9.895 18.25 9.85 17.9725 9.85 16C9.85 14.0275 9.85 13.75 9.895 13C9.89836 12.5133 9.98721 12.031 10.1575 11.575C10.2895 11.2584 10.4922 10.9762 10.75 10.75C10.9779 10.4921 11.2595 10.2873 11.575 10.15C12.0322 9.98503 12.514 9.89881 13 9.895C13.75 9.895 14.0275 9.85 16 9.85C17.9725 9.85 18.25 9.85 19 9.895C19.4761 9.90046 19.9478 9.98668 20.395 10.15C20.7358 10.2765 21.0417 10.4821 21.2875 10.75C21.5333 10.9804 21.7253 11.262 21.85 11.575C22.0167 12.0317 22.103 12.5138 22.105 13C22.1425 13.75 22.15 14.0275 22.15 16C22.15 17.9725 22.1425 18.25 22.105 19ZM16 12.1525C15.2394 12.154 14.4962 12.3809 13.8645 12.8046C13.2328 13.2282 12.7408 13.8296 12.4507 14.5328C12.1607 15.236 12.0855 16.0093 12.2348 16.7552C12.3841 17.501 12.7512 18.1859 13.2896 18.7232C13.8279 19.2606 14.5135 19.6263 15.2596 19.7741C16.0058 19.922 16.779 19.8453 17.4816 19.5539C18.1842 19.2625 18.7847 18.7693 19.2071 18.1368C19.6295 17.5042 19.855 16.7606 19.855 16C19.856 15.4938 19.7569 14.9925 19.5634 14.5247C19.37 14.057 19.0859 13.6321 18.7277 13.2745C18.3694 12.917 17.944 12.6338 17.4758 12.4412C17.0077 12.2486 16.5062 12.1505 16 12.1525ZM16 18.4975C15.506 18.4975 15.0232 18.351 14.6125 18.0766C14.2018 17.8022 13.8816 17.4121 13.6926 16.9558C13.5036 16.4994 13.4541 15.9972 13.5505 15.5128C13.6469 15.0283 13.8847 14.5833 14.234 14.234C14.5833 13.8847 15.0283 13.6469 15.5128 13.5505C15.9972 13.4541 16.4994 13.5036 16.9558 13.6926C17.4121 13.8816 17.8022 14.2018 18.0766 14.6125C18.351 15.0232 18.4975 15.506 18.4975 16C18.4975 16.328 18.4329 16.6527 18.3074 16.9558C18.1819 17.2588 17.9979 17.5341 17.766 17.766C17.5341 17.9979 17.2588 18.1819 16.9558 18.3074C16.6527 18.4329 16.328 18.4975 16 18.4975Z" fill="white"/>
</svg>
