<svg width="38" height="38" viewBox="0 0 38 38" fill="none" xmlns="http://www.w3.org/2000/svg">
<path d="M28.8527 22.6064C28.7875 22.7011 28.7156 22.791 28.6376 22.8755L28.6308 22.8828C28.2478 23.3395 27.825 23.7613 27.3673 24.1433C24.1546 27.1129 18.8664 30.6483 18.1685 30.1029C17.5618 29.6288 19.1678 27.3098 17.3149 26.9238C17.1856 26.9089 17.0567 26.8931 16.9289 26.8749L16.9265 26.8748V26.8746C11.4843 26.1015 7.35156 22.2948 7.35156 17.715C7.3515 12.5771 12.553 8.41211 18.9693 8.41211C25.3857 8.41211 30.5872 12.5771 30.5872 17.7151C30.5724 19.4936 29.9617 21.2159 28.8527 22.6064Z" fill="white"/>
<path d="M28.3521 3.16699H9.6475C6.06818 3.16699 3.1665 6.06867 3.1665 9.64799V28.3526C3.1665 31.932 6.06818 34.8337 9.64759 34.8337H28.3521C31.9315 34.8337 34.8332 31.932 34.8332 28.3526V9.64808C34.8332 6.06867 31.9315 3.16699 28.3521 3.16699ZM28.8525 22.6069C28.7872 22.7016 28.7153 22.7915 28.6374 22.8759L28.6306 22.8833C28.2475 23.34 27.8247 23.7618 27.3672 24.1437C24.1543 27.1134 18.8662 30.6488 18.1683 30.1034C17.5615 29.6293 19.1676 27.3102 17.3147 26.9242C17.1854 26.9094 17.0565 26.8935 16.9286 26.8753L16.9263 26.8753V26.8751C11.4841 26.102 7.3514 22.2952 7.3514 17.7155C7.3513 12.5776 12.5528 8.41258 18.9691 8.41258C25.3855 8.41258 30.587 12.5776 30.587 17.7155C30.5722 19.4941 29.9615 21.2164 28.8525 22.6069Z" fill="#22C55E"/>
<path d="M14.5716 19.42H12.885V15.5825C12.884 15.2482 12.6133 14.9775 12.279 14.9766H12.2285C11.8942 14.9775 11.6235 15.2482 11.6226 15.5825V20.0764C11.6235 20.4107 11.8942 20.6814 12.2285 20.6824H14.5716C14.9059 20.6814 15.1766 20.4107 15.1775 20.0764V20.0258C15.1765 19.6916 14.9058 19.4209 14.5716 19.42ZM21.811 14.9767H21.7603C21.4261 14.9777 21.1554 15.2484 21.1545 15.5827V18.2206L18.9645 15.2831C18.8567 15.0941 18.656 14.9772 18.4384 14.9767H18.3879C18.0536 14.9777 17.7828 15.2484 17.7818 15.5827V20.0765C17.7828 20.4108 18.0536 20.6816 18.3879 20.6825H18.4384C18.7726 20.6815 19.0433 20.4107 19.0442 20.0765V17.3892L21.2501 20.4021C21.2636 20.4232 21.2785 20.4434 21.2944 20.4627L21.2945 20.4628C21.3543 20.5428 21.4364 20.6033 21.5304 20.6368C21.6033 20.667 21.6814 20.6825 21.7603 20.6824H21.8109C21.9096 20.6825 22.0068 20.6582 22.0939 20.6117C22.1505 20.5862 22.2009 20.5487 22.2415 20.5018L22.2417 20.5015C22.3538 20.3885 22.4168 20.2357 22.4169 20.0765V15.5827C22.4159 15.2484 22.1452 14.9777 21.811 14.9767ZM16.2723 14.9766H16.3229C16.6576 14.9766 16.9289 15.2479 16.9289 15.5826V20.0763C16.9289 20.411 16.6576 20.6823 16.3229 20.6823H16.2723C15.9377 20.6823 15.6665 20.4111 15.6664 20.0765V15.5826C15.6664 15.2479 15.9376 14.9766 16.2723 14.9766C16.2723 14.9766 16.2723 14.9766 16.2723 14.9766ZM26.1417 14.9874H23.7986C23.4643 14.9883 23.1936 15.259 23.1927 15.5933V20.0872C23.1936 20.4214 23.4643 20.6922 23.7986 20.6931H26.1417C26.476 20.6921 26.7467 20.4215 26.7477 20.0872V20.0365C26.7467 19.7023 26.4759 19.4316 26.1417 19.4307H24.4551V18.4712H26.1417C26.4759 18.4704 26.7467 18.1997 26.7477 17.8655V17.8149C26.7467 17.4807 26.476 17.2099 26.1417 17.209H24.4551V16.2497H26.1417C26.476 16.2487 26.7467 15.978 26.7477 15.6437V15.5933C26.7467 15.259 26.476 14.9883 26.1417 14.9874Z" fill="#22C55E"/>
</svg>
