<svg width="32" height="32" viewBox="0 0 32 32" fill="none" xmlns="http://www.w3.org/2000/svg">
<rect width="32" height="32" rx="4" fill="#FFD200"/>
<rect x="4.36377" y="4.36328" width="23.2727" height="23.2727" rx="4" fill="#FFD200"/>
<path d="M16.0139 6.30078C10.6582 6.30078 6.31689 10.6421 6.31689 15.9978C6.31689 17.2312 6.57095 18.4811 7.0141 19.6041L7.77144 21.1488C8.25144 22.1466 8.08272 23.0872 7.43787 24.2402C7.08199 24.8782 7.52611 25.6472 8.25629 25.6647C9.24247 25.687 10.8202 25.2816 12.075 24.8162C13.2318 25.3505 14.7222 25.6947 16.0139 25.6947C21.3695 25.6947 25.7108 21.3534 25.7108 15.9978C25.7108 10.6421 21.3695 6.30078 16.0139 6.30078ZM12.1351 15.0281C12.6703 15.0281 13.1048 15.4625 13.1048 15.9978C13.1048 16.533 12.6703 16.9675 12.1351 16.9675C11.5998 16.9675 11.1654 16.533 11.1654 15.9978C11.1654 15.4625 11.5998 15.0281 12.1351 15.0281ZM16.0139 15.0281C16.5491 15.0281 16.9836 15.4625 16.9836 15.9978C16.9836 16.533 16.5491 16.9675 16.0139 16.9675C15.4786 16.9675 15.0442 16.533 15.0442 15.9978C15.0442 15.4625 15.4786 15.0281 16.0139 15.0281ZM19.8927 15.0281C20.4279 15.0281 20.8623 15.4625 20.8623 15.9978C20.8623 16.533 20.4279 16.9675 19.8927 16.9675C19.3574 16.9675 18.923 16.533 18.923 15.9978C18.923 15.4625 19.3574 15.0281 19.8927 15.0281Z" fill="white"/>
</svg>
