<svg width="32" height="32" viewBox="0 0 32 32" fill="none" xmlns="http://www.w3.org/2000/svg">
<rect width="32" height="32" rx="4" fill="#2AABEE"/>
<path d="M20.232 22.8703C20.0386 23.3524 19.491 23.5865 19.0088 23.3931C18.97 23.3776 18.9323 23.3595 18.896 23.3389L15.2764 20.5264L12.9533 22.6696C12.8438 22.7506 12.7006 22.7701 12.5733 22.7215L13.0187 18.7369L13.0329 18.7482L13.042 18.6696C13.042 18.6696 19.5553 12.7396 19.8207 12.4869C20.0893 12.2349 20.0007 12.1802 20.0007 12.1802C20.016 11.8729 19.5187 12.1802 19.5187 12.1802L10.8886 17.7323L7.29464 16.5083C7.29464 16.5083 6.74264 16.3103 6.69064 15.875C6.63598 15.443 7.31263 15.2083 7.31263 15.2083L21.602 9.53162C21.602 9.53162 22.7766 9.00826 22.7766 9.87496L20.232 22.8703Z" fill="white"/>
<path d="M15.992 2.66699C8.62817 2.66699 2.65869 8.63655 2.65869 16.0003C2.65869 23.3641 8.62817 29.3337 15.992 29.3337C23.3558 29.3337 29.3254 23.3641 29.3254 16.0003C29.3254 8.63655 23.3558 2.66699 15.992 2.66699ZM20.2318 22.8703C20.0384 23.3525 19.4908 23.5866 19.0086 23.3932C18.9698 23.3776 18.9321 23.3595 18.8957 23.339L15.2762 20.5264L12.9531 22.6697C12.8436 22.7506 12.7003 22.7702 12.5732 22.7216L13.0185 18.737L13.0327 18.7483L13.0418 18.6696C13.0418 18.6696 19.5552 12.7396 19.8205 12.487C20.0891 12.2349 20.0005 12.1803 20.0005 12.1803C20.0158 11.8729 19.5185 12.1803 19.5185 12.1803L10.8884 17.7323L7.29442 16.5083C7.29442 16.5083 6.74242 16.3103 6.69042 15.875C6.63573 15.4429 7.31241 15.2083 7.31241 15.2083L21.6017 9.53166C21.6017 9.53166 22.7764 9.0083 22.7764 9.87501L20.2318 22.8703Z" fill="#2AABEE"/>
</svg>
