<svg width="32" height="32" viewBox="0 0 32 32" fill="none" xmlns="http://www.w3.org/2000/svg">
<rect width="32" height="32" rx="4" fill="#40A9FF"/>
<rect x="7" y="7" width="18" height="18" rx="3" fill="#40A9FF"/>
<path d="M23.5 11.3497C22.9363 11.5942 22.3401 11.7559 21.73 11.8297C22.3736 11.4452 22.856 10.8403 23.0875 10.1272C22.4827 10.4872 21.8206 10.7409 21.13 10.8772C20.6684 10.3766 20.0537 10.0434 19.3824 9.92981C18.711 9.81622 18.0209 9.92869 17.4203 10.2496C16.8198 10.5704 16.3427 11.0816 16.0639 11.7028C15.7852 12.324 15.7205 13.0202 15.88 13.6822C14.6571 13.6203 13.4608 13.3019 12.369 12.7476C11.2772 12.1932 10.3141 11.4154 9.5425 10.4647C9.27185 10.9373 9.12964 11.4725 9.13 12.0172C9.12904 12.523 9.25316 13.0211 9.49132 13.4673C9.72947 13.9136 10.0743 14.294 10.495 14.5747C10.006 14.5614 9.52741 14.4301 9.1 14.1922V14.2297C9.10367 14.9383 9.352 15.624 9.80299 16.1706C10.254 16.7173 10.8799 17.0914 11.575 17.2297C11.3074 17.3111 11.0297 17.354 10.75 17.3572C10.5564 17.3549 10.3633 17.3374 10.1725 17.3047C10.3704 17.9143 10.7535 18.447 11.2683 18.8288C11.7831 19.2105 12.4042 19.4223 13.045 19.4347C11.9629 20.2861 10.6269 20.7508 9.25 20.7547C8.9993 20.7555 8.7488 20.7405 8.5 20.7097C9.90582 21.6174 11.5441 22.0992 13.2175 22.0972C14.3723 22.1092 15.5179 21.8909 16.5873 21.4552C17.6568 21.0195 18.6288 20.3751 19.4464 19.5595C20.264 18.744 20.911 17.7737 21.3494 16.7053C21.7879 15.637 22.009 14.492 22 13.3372C22 13.2097 22 13.0747 22 12.9397C22.5885 12.5008 23.0961 11.9627 23.5 11.3497Z" fill="white"/>
</svg>
