<svg width="40" height="40" viewBox="0 0 40 40" fill="none" xmlns="http://www.w3.org/2000/svg">
<path d="M36.6503 10.9107C36.6361 10.1956 36.5785 9.48202 36.4777 8.77389C36.3582 8.14483 36.1551 7.53457 35.8739 6.95931C35.2571 5.74025 34.2676 4.74968 33.0492 4.13156C32.4773 3.85108 31.8706 3.64811 31.2451 3.52801C30.5316 3.42522 29.8125 3.36652 29.0918 3.35224C28.786 3.34114 28.3903 3.33566 28.2077 3.33566L11.7948 3.33301C11.6129 3.33301 11.2171 3.33851 10.911 3.34939C10.1959 3.36344 9.48231 3.42106 8.7742 3.52191C8.14514 3.64143 7.53488 3.84447 6.95961 4.12566C5.74058 4.74258 4.74999 5.7321 4.13175 6.95046C3.85135 7.52236 3.64839 8.12906 3.52821 8.75456C3.42552 9.46805 3.36681 10.1872 3.35243 10.9079C3.34155 11.2137 3.33596 11.6094 3.33596 11.7919L3.33331 28.2048C3.33331 28.3866 3.33881 28.7824 3.3497 29.0886C3.36375 29.8037 3.42136 30.5173 3.52221 31.2255C3.64175 31.8545 3.84479 32.4648 4.12596 33.04C4.74285 34.259 5.73234 35.2496 6.95066 35.8678C7.5226 36.1482 8.12934 36.3511 8.75486 36.4713C9.46835 36.5741 10.1875 36.6328 10.9082 36.6471C11.2139 36.6581 11.6097 36.6637 11.7922 36.6637L28.2051 36.6663C28.3869 36.6663 28.7828 36.6608 29.0888 36.65C29.804 36.6359 30.5176 36.5782 31.2258 36.4774C31.8548 36.3578 32.465 36.1548 33.0402 35.8737C34.2593 35.2568 35.2499 34.2673 35.8681 33.0489C36.1485 32.477 36.3515 31.8703 36.4716 31.2448C36.5744 30.5313 36.6332 29.8122 36.6475 29.0915C36.6585 28.7857 36.664 28.39 36.664 28.2075L36.6666 11.7945C36.6666 11.6127 36.6611 11.2168 36.6503 10.9107ZM20.3612 31.5938H20.3563C18.3726 31.5937 16.4204 31.0966 14.6781 30.1481L8.3793 31.7998L10.065 25.6445C8.75902 23.3785 8.23713 20.745 8.58022 18.1522C8.92332 15.5594 10.1122 13.1522 11.9626 11.3039C13.813 9.45556 16.2215 8.26934 18.8147 7.92913C21.4078 7.58893 24.0408 8.11375 26.3053 9.42223C28.5699 10.7307 30.3395 12.7497 31.3397 15.1663C32.34 17.5828 32.5151 20.2619 31.8379 22.7881C31.1606 25.3142 29.6688 27.5464 27.5938 29.1385C25.5189 30.7306 22.9766 31.5936 20.3612 31.5938Z" fill="#22C55E"/>
<path d="M20.3651 9.83496C18.6004 9.83455 16.8677 10.3069 15.3474 11.203C13.8271 12.0991 12.5746 13.3861 11.7201 14.9302C10.8657 16.4743 10.4406 18.2191 10.4889 19.9832C10.5373 21.7473 11.0574 23.4662 11.9951 24.9612L12.23 25.3348L11.2323 28.9778L14.97 27.9976L15.3306 28.2116C16.8525 29.1127 18.5886 29.588 20.3572 29.5878H20.3612C22.9784 29.5849 25.4874 28.5434 27.3372 26.692C29.1871 24.8405 30.2264 22.3306 30.2269 19.7134C30.2274 17.0962 29.1891 14.5858 27.34 12.7336C25.491 10.8814 22.9823 9.83885 20.3651 9.83496H20.3651ZM26.1741 23.9516C25.9555 24.3124 25.6646 24.624 25.3198 24.8669C24.9749 25.1097 24.5835 25.2786 24.1702 25.3629C23.5462 25.4696 22.9059 25.4294 22.3002 25.2454C21.7254 25.0668 21.1604 24.8581 20.6076 24.6201C18.5572 23.5911 16.8095 22.0468 15.536 20.1386C14.8417 19.255 14.4203 18.1879 14.3237 17.0683C14.3155 16.6061 14.4036 16.1472 14.5825 15.7209C14.7614 15.2946 15.0272 14.9102 15.3628 14.5923C15.4621 14.4791 15.5836 14.3877 15.7198 14.3238C15.8561 14.2599 16.0041 14.2249 16.1545 14.2209C16.3524 14.2209 16.5505 14.2227 16.7235 14.2314C16.9057 14.2404 17.1505 14.1621 17.3915 14.7409C17.6389 15.3351 18.2327 16.7959 18.3068 16.9445C18.3539 17.0223 18.3808 17.1106 18.3851 17.2013C18.3894 17.2921 18.371 17.3826 18.3316 17.4645C18.2568 17.6429 18.1568 17.8096 18.0347 17.9597C17.8863 18.133 17.7229 18.3467 17.5894 18.4797C17.4407 18.6277 17.286 18.7883 17.4591 19.0854C17.905 19.8486 18.4617 20.5415 19.1108 21.1414C19.8149 21.7675 20.6229 22.2661 21.4983 22.6146C21.7951 22.7632 21.9683 22.7384 22.1415 22.5404C22.3147 22.3423 22.8837 21.6737 23.0815 21.3766C23.2793 21.0796 23.4773 21.129 23.7494 21.2281C24.0215 21.3272 25.4813 22.0452 25.7782 22.1937C26.0752 22.3422 26.273 22.4166 26.3472 22.5404C26.4285 23.0176 26.3684 23.5083 26.1741 23.9518V23.9516Z" fill="#22C55E"/>
</svg>
